<?xml version="1.0" encoding="UTF-8"?><svg id="a" xmlns="http://www.w3.org/2000/svg" xmlns:xlink="http://www.w3.org/1999/xlink" viewBox="0 0 501.6 418"><defs><style>.f{fill:url(#c);}.g{fill:url(#b);}.h{fill:url(#d);}.i{fill:url(#e);}</style><linearGradient id="b" x1="77.09" y1="64.74" x2="493.38" y2="312.01" gradientTransform="matrix(1, 0, 0, 1, 0, 0)" gradientUnits="userSpaceOnUse"><stop offset="0" stop-color="#f71b38"/><stop offset="1" stop-color="#a60437"/></linearGradient><linearGradient id="c" x1="54.64" y1="120.36" x2="657.17" y2="322.25" gradientTransform="matrix(1, 0, 0, 1, 0, 0)" gradientUnits="userSpaceOnUse"><stop offset="0" stop-color="#b6063c"/><stop offset="1" stop-color="#990433"/></linearGradient><linearGradient id="d" x1="33.56" y1="115.05" x2="118.34" y2="115.05" gradientTransform="matrix(1, 0, 0, 1, 0, 0)" gradientUnits="userSpaceOnUse"><stop offset="0" stop-color="#ff4c5e"/><stop offset="1" stop-color="#f92d40"/></linearGradient><linearGradient id="e" x1="52.99" y1="229.43" x2="130.7" y2="229.43" xlink:href="#d"/></defs><path class="g" d="M501.6,141.07c0,182.88-250.8,276.93-250.8,276.93,0,0-250.8-94.05-250.8-276.93C0,63.12,60.59,0,135.43,0c48.76,0,91.49,26.86,115.37,67.09C274.68,26.86,317.41,0,366.17,0c74.84,0,135.43,63.12,135.43,141.07Z"/><path class="f" d="M501.6,141.07c0,182.87-250.8,276.92-250.8,276.92,0,0-10.7-4.01-27.69-11.99,65.26-44.63,184.89-143.11,184.89-258.82,0-130.7-130.7-124.87-157.19-80.1C274.68,26.85,317.42,0,366.17,0,441,0,501.6,63.11,501.6,141.07Z"/><path class="h" d="M95.37,42.29c-30.27,11.03-61.82,36.41-61.82,94.3,0,18.99,2.73,36.03,7.25,51.22l51.34-15.9c-2.65-9.63-4.08-20.21-3.83-31.79,.74-34.06,13.19-48.39,30.03-54.44l-22.96-43.39Z"/><path class="i" d="M130.7,230c-10.47-8.87-21.18-20.47-29.22-35.13l-48.49,22.87c10.23,19.48,23.15,34.76,35.32,46.26l42.39-34Z"/></svg>